<svg xmlns="http://www.w3.org/2000/svg" width="160" height="96" viewBox="0 0 160 96" fill="none" stroke="currentColor" stroke-width="1" stroke-linecap="round" stroke-linejoin="round" style="color:var(--yx-lace,#100b0e)"><title>black-lace-ribbon</title><desc>图⑥月下蕾丝语汇的原创风格衍生。纯原生矢量，黑色线饰，背景透明，无人物、文字或标识。</desc><g transform="translate(0 0)"><path d="M0 35 C4 35 5 19 20 10 C35 19 36 35 40 35 M6 35 C9 23 13 18 20 15 C27 18 31 23 34 35" stroke-width="1.05"/><path d="M12 34 C12 24 19 21 20 18 C21 21 28 24 28 34 M20 19 V34 M15 25 L13 33 M25 25 L27 33" stroke-width=".8"/><path d="M16 10 Q12 4 17 5 Q20 3 20 8 Q20 3 23 5 Q28 4 24 10" stroke-width=".85"/><circle cx="20" cy="1.8" r="1" fill="currentColor" stroke="none"/><circle cx="5" cy="29" r="1.35" stroke-width=".85"/><circle cx="35" cy="29" r="1.35" stroke-width=".85"/></g><g transform="translate(40 0)"><path d="M0 35 C4 35 5 19 20 10 C35 19 36 35 40 35 M6 35 C9 23 13 18 20 15 C27 18 31 23 34 35" stroke-width="1.05"/><path d="M12 34 C12 24 19 21 20 18 C21 21 28 24 28 34 M20 19 V34 M15 25 L13 33 M25 25 L27 33" stroke-width=".8"/><path d="M16 10 Q12 4 17 5 Q20 3 20 8 Q20 3 23 5 Q28 4 24 10" stroke-width=".85"/><circle cx="20" cy="1.8" r="1" fill="currentColor" stroke="none"/><circle cx="5" cy="29" r="1.35" stroke-width=".85"/><circle cx="35" cy="29" r="1.35" stroke-width=".85"/></g><g transform="translate(80 0)"><path d="M0 35 C4 35 5 19 20 10 C35 19 36 35 40 35 M6 35 C9 23 13 18 20 15 C27 18 31 23 34 35" stroke-width="1.05"/><path d="M12 34 C12 24 19 21 20 18 C21 21 28 24 28 34 M20 19 V34 M15 25 L13 33 M25 25 L27 33" stroke-width=".8"/><path d="M16 10 Q12 4 17 5 Q20 3 20 8 Q20 3 23 5 Q28 4 24 10" stroke-width=".85"/><circle cx="20" cy="1.8" r="1" fill="currentColor" stroke="none"/><circle cx="5" cy="29" r="1.35" stroke-width=".85"/><circle cx="35" cy="29" r="1.35" stroke-width=".85"/></g><g transform="translate(120 0)"><path d="M0 35 C4 35 5 19 20 10 C35 19 36 35 40 35 M6 35 C9 23 13 18 20 15 C27 18 31 23 34 35" stroke-width="1.05"/><path d="M12 34 C12 24 19 21 20 18 C21 21 28 24 28 34 M20 19 V34 M15 25 L13 33 M25 25 L27 33" stroke-width=".8"/><path d="M16 10 Q12 4 17 5 Q20 3 20 8 Q20 3 23 5 Q28 4 24 10" stroke-width=".85"/><circle cx="20" cy="1.8" r="1" fill="currentColor" stroke="none"/><circle cx="5" cy="29" r="1.35" stroke-width=".85"/><circle cx="35" cy="29" r="1.35" stroke-width=".85"/></g><g transform="translate(0 96) scale(1 -1)"><g transform="translate(0 0)"><path d="M0 35 C4 35 5 19 20 10 C35 19 36 35 40 35 M6 35 C9 23 13 18 20 15 C27 18 31 23 34 35" stroke-width="1.05"/><path d="M12 34 C12 24 19 21 20 18 C21 21 28 24 28 34 M20 19 V34 M15 25 L13 33 M25 25 L27 33" stroke-width=".8"/><path d="M16 10 Q12 4 17 5 Q20 3 20 8 Q20 3 23 5 Q28 4 24 10" stroke-width=".85"/><circle cx="20" cy="1.8" r="1" fill="currentColor" stroke="none"/><circle cx="5" cy="29" r="1.35" stroke-width=".85"/><circle cx="35" cy="29" r="1.35" stroke-width=".85"/></g><g transform="translate(40 0)"><path d="M0 35 C4 35 5 19 20 10 C35 19 36 35 40 35 M6 35 C9 23 13 18 20 15 C27 18 31 23 34 35" stroke-width="1.05"/><path d="M12 34 C12 24 19 21 20 18 C21 21 28 24 28 34 M20 19 V34 M15 25 L13 33 M25 25 L27 33" stroke-width=".8"/><path d="M16 10 Q12 4 17 5 Q20 3 20 8 Q20 3 23 5 Q28 4 24 10" stroke-width=".85"/><circle cx="20" cy="1.8" r="1" fill="currentColor" stroke="none"/><circle cx="5" cy="29" r="1.35" stroke-width=".85"/><circle cx="35" cy="29" r="1.35" stroke-width=".85"/></g><g transform="translate(80 0)"><path d="M0 35 C4 35 5 19 20 10 C35 19 36 35 40 35 M6 35 C9 23 13 18 20 15 C27 18 31 23 34 35" stroke-width="1.05"/><path d="M12 34 C12 24 19 21 20 18 C21 21 28 24 28 34 M20 19 V34 M15 25 L13 33 M25 25 L27 33" stroke-width=".8"/><path d="M16 10 Q12 4 17 5 Q20 3 20 8 Q20 3 23 5 Q28 4 24 10" stroke-width=".85"/><circle cx="20" cy="1.8" r="1" fill="currentColor" stroke="none"/><circle cx="5" cy="29" r="1.35" stroke-width=".85"/><circle cx="35" cy="29" r="1.35" stroke-width=".85"/></g><g transform="translate(120 0)"><path d="M0 35 C4 35 5 19 20 10 C35 19 36 35 40 35 M6 35 C9 23 13 18 20 15 C27 18 31 23 34 35" stroke-width="1.05"/><path d="M12 34 C12 24 19 21 20 18 C21 21 28 24 28 34 M20 19 V34 M15 25 L13 33 M25 25 L27 33" stroke-width=".8"/><path d="M16 10 Q12 4 17 5 Q20 3 20 8 Q20 3 23 5 Q28 4 24 10" stroke-width=".85"/><circle cx="20" cy="1.8" r="1" fill="currentColor" stroke="none"/><circle cx="5" cy="29" r="1.35" stroke-width=".85"/><circle cx="35" cy="29" r="1.35" stroke-width=".85"/></g></g><path d="M0 35 H160 M0 38 H160 M0 58 H160 M0 61 H160" stroke-width="1"/><path d="M0 39 H160 V57 H0Z M7 48 L10 44 L13 48 L10 52Z M27 48 L30 44 L33 48 L30 52Z M47 48 L50 44 L53 48 L50 52Z M67 48 L70 44 L73 48 L70 52Z M87 48 L90 44 L93 48 L90 52Z M107 48 L110 44 L113 48 L110 52Z M127 48 L130 44 L133 48 L130 52Z M147 48 L150 44 L153 48 L150 52Z" fill="currentColor" fill-rule="evenodd" stroke="none"/><g transform="translate(0 0)"><path d="M0 36.5 Q2.5 34.5 5 36.5 Q7.5 38.5 10 36.5 M0 59.5 Q2.5 57.5 5 59.5 Q7.5 61.5 10 59.5" stroke-width=".65"/></g><g transform="translate(10 0)"><path d="M0 36.5 Q2.5 34.5 5 36.5 Q7.5 38.5 10 36.5 M0 59.5 Q2.5 57.5 5 59.5 Q7.5 61.5 10 59.5" stroke-width=".65"/></g><g transform="translate(20 0)"><path d="M0 36.5 Q2.5 34.5 5 36.5 Q7.5 38.5 10 36.5 M0 59.5 Q2.5 57.5 5 59.5 Q7.5 61.5 10 59.5" stroke-width=".65"/></g><g transform="translate(30 0)"><path d="M0 36.5 Q2.5 34.5 5 36.5 Q7.5 38.5 10 36.5 M0 59.5 Q2.5 57.5 5 59.5 Q7.5 61.5 10 59.5" stroke-width=".65"/></g><g transform="translate(40 0)"><path d="M0 36.5 Q2.5 34.5 5 36.5 Q7.5 38.5 10 36.5 M0 59.5 Q2.5 57.5 5 59.5 Q7.5 61.5 10 59.5" stroke-width=".65"/></g><g transform="translate(50 0)"><path d="M0 36.5 Q2.5 34.5 5 36.5 Q7.5 38.5 10 36.5 M0 59.5 Q2.5 57.5 5 59.5 Q7.5 61.5 10 59.5" stroke-width=".65"/></g><g transform="translate(60 0)"><path d="M0 36.5 Q2.5 34.5 5 36.5 Q7.5 38.5 10 36.5 M0 59.5 Q2.5 57.5 5 59.5 Q7.5 61.5 10 59.5" stroke-width=".65"/></g><g transform="translate(70 0)"><path d="M0 36.5 Q2.5 34.5 5 36.5 Q7.5 38.5 10 36.5 M0 59.5 Q2.5 57.5 5 59.5 Q7.5 61.5 10 59.5" stroke-width=".65"/></g><g transform="translate(80 0)"><path d="M0 36.5 Q2.5 34.5 5 36.5 Q7.5 38.5 10 36.5 M0 59.5 Q2.5 57.5 5 59.5 Q7.5 61.5 10 59.5" stroke-width=".65"/></g><g transform="translate(90 0)"><path d="M0 36.5 Q2.5 34.5 5 36.5 Q7.5 38.5 10 36.5 M0 59.5 Q2.5 57.5 5 59.5 Q7.5 61.5 10 59.5" stroke-width=".65"/></g><g transform="translate(100 0)"><path d="M0 36.5 Q2.5 34.5 5 36.5 Q7.5 38.5 10 36.5 M0 59.5 Q2.5 57.5 5 59.5 Q7.5 61.5 10 59.5" stroke-width=".65"/></g><g transform="translate(110 0)"><path d="M0 36.5 Q2.5 34.5 5 36.5 Q7.5 38.5 10 36.5 M0 59.5 Q2.5 57.5 5 59.5 Q7.5 61.5 10 59.5" stroke-width=".65"/></g><g transform="translate(120 0)"><path d="M0 36.5 Q2.5 34.5 5 36.5 Q7.5 38.5 10 36.5 M0 59.5 Q2.5 57.5 5 59.5 Q7.5 61.5 10 59.5" stroke-width=".65"/></g><g transform="translate(130 0)"><path d="M0 36.5 Q2.5 34.5 5 36.5 Q7.5 38.5 10 36.5 M0 59.5 Q2.5 57.5 5 59.5 Q7.5 61.5 10 59.5" stroke-width=".65"/></g><g transform="translate(140 0)"><path d="M0 36.5 Q2.5 34.5 5 36.5 Q7.5 38.5 10 36.5 M0 59.5 Q2.5 57.5 5 59.5 Q7.5 61.5 10 59.5" stroke-width=".65"/></g><g transform="translate(150 0)"><path d="M0 36.5 Q2.5 34.5 5 36.5 Q7.5 38.5 10 36.5 M0 59.5 Q2.5 57.5 5 59.5 Q7.5 61.5 10 59.5" stroke-width=".65"/></g></svg>
