<svg xmlns="http://www.w3.org/2000/svg" viewBox="0 0 1000 720" fill="none">
<defs><linearGradient id="stage-metal" x1="0" y1="0" x2="1" y2="1"><stop offset="0" stop-color="var(--yx-cream,#f5e7ce)"/><stop offset=".38" stop-color="var(--yx-gold,#bba988)"/><stop offset=".67" stop-color="var(--yx-cream,#f5e7ce)"/><stop offset="1" stop-color="var(--yx-gold,#bba988)"/></linearGradient><radialGradient id="stage-pearl" cx=".34" cy=".26" r=".82"><stop offset="0" stop-color="var(--yx-cream,#f5e7ce)"/><stop offset=".7" stop-color="var(--yx-gold,#bba988)"/><stop offset="1" stop-color="var(--yx-panel,#21171b)"/></radialGradient></defs>
<path d="M80 690Q56 690 56 666V614H38Q18 614 18 594V260Q18 240 38 240H56V174Q56 150 80 150H170Q170 128 190 120L478 28Q500 20 522 28L810 120Q830 128 830 150H920Q944 150 944 174V240H962Q982 240 982 260V594Q982 614 962 614H944V666Q944 690 920 690ZM128 220H872V638H128Z" fill="var(--yx-panel,#21171b)" fill-rule="evenodd"/>
<path d="M80 690Q56 690 56 666V614H38Q18 614 18 594V260Q18 240 38 240H56V174Q56 150 80 150H170Q170 128 190 120L478 28Q500 20 522 28L810 120Q830 128 830 150H920Q944 150 944 174V240H962Q982 240 982 260V594Q982 614 962 614H944V666Q944 690 920 690Z" stroke="var(--yx-ink,#100b0e)" stroke-width="12"/>
<path d="M80 690Q56 690 56 666V614H38Q18 614 18 594V260Q18 240 38 240H56V174Q56 150 80 150H170Q170 128 190 120L478 28Q500 20 522 28L810 120Q830 128 830 150H920Q944 150 944 174V240H962Q982 240 982 260V594Q982 614 962 614H944V666Q944 690 920 690Z" stroke="url(#stage-metal)" stroke-width="6"/>
<path d="M82 675H920Q930 675 930 664V600H960Q968 600 968 590V264Q968 254 960 254H930V175Q930 164 918 164H816V153Q816 139 803 134L516 43Q500 37 484 43L197 134Q184 139 184 153V164H82Q70 164 70 175V254H40Q32 254 32 264V590Q32 600 40 600H70V664Q70 675 82 675Z" stroke="var(--yx-gold,#bba988)" stroke-width="2" opacity=".47"/>
<path d="M192 126 487 32Q500 27 513 32L808 126" stroke="var(--yx-cream,#f5e7ce)" stroke-width="1.3" opacity=".65"/>
<path d="M111 203H889V655H111ZM128 220H872V638H128Z" fill="url(#stage-metal)" fill-rule="evenodd"/>
<path d="M121 213H879V645H121Z" stroke="var(--yx-cream,#f5e7ce)" stroke-width="1" opacity=".6"/>
<g transform="translate(290 58)"><g stroke="var(--yx-ink,#100b0e)" stroke-width="1.4" stroke-linejoin="round">
<path d="M10 8Q210 110 410 8" stroke="var(--yx-gold,#bba988)" stroke-width="1.6"/>
<path d="m24 16 24 4 15 19-25-6Zm55 28 26-6 24 13-27 7Zm67 14 25-12 26 8-26 13Zm77-4 26-8 25 12-26 9Zm68-3 24-13 26 6-23 14Zm66-12 15-19 24-4-14 17Z" fill="url(#stage-metal)"/>
<g fill="var(--yx-cream,#f5e7ce)"><circle cx="10" cy="8" r="4.2"/><circle cx="70" cy="40" r="3.2"/><circle cx="136" cy="56" r="3.2"/><circle cx="210" cy="60" r="3.2"/><circle cx="284" cy="56" r="3.2"/><circle cx="350" cy="40" r="3.2"/><circle cx="410" cy="8" r="4.2"/></g></g></g>
<g transform="translate(439 4) scale(.7625)"><g stroke="var(--yx-ink,#100b0e)" stroke-width="2.6" stroke-linejoin="round">
<path d="M67 55 46 29Q35 18 20 20q-6 20 4 38l16 12 6-8-13-18q11 0 23 18Z" fill="url(#stage-metal)"/>
<path d="m93 55 21-26q11-11 26-9 6 20-4 38l-16 12-6-8 13-18q-11 0-23 18Z" fill="url(#stage-metal)"/>
<path fill-rule="evenodd" d="m80 2 18 23-18 27-18-27Zm0 14-7 9 7 10 7-10Z" fill="url(#stage-metal)"/>
<path d="m80 43 34 46-34 58-34-58Z" fill="url(#stage-metal)"/>
<path d="m80 59 23 31-23 40-23-40Z" fill="var(--yx-ink,#100b0e)"/>
<path d="m80 66 17 25-17 30-17-30Z" fill="var(--yx-red,#a51d32)"/>
<path d="m80 66 17 25H80Z" fill="var(--yx-cream,#f5e7ce)" opacity=".3" stroke="none"/>
<path d="m80 91 17 0-17 30Z" fill="var(--yx-ink,#100b0e)" opacity=".24" stroke="none"/>
<path d="m38 105 13-8 16 38 13 17 13-17 16-38 13 8q-12 52-42 76-30-24-42-76Z" fill="url(#stage-metal)"/>
<path d="m51 113 15 31 14 19 14-19 15-31" stroke="var(--yx-panel,#21171b)" stroke-width="3"/>
</g>
<path d="m80 152v25M56 60l11-8m26 0 11 8" stroke="var(--yx-cream,#f5e7ce)" stroke-width="1.2" opacity=".7"/></g>
<circle cx="77" cy="309" r="15" fill="var(--yx-ink,#100b0e)" opacity=".7"/><circle cx="76" cy="306" r="13" fill="url(#stage-pearl)" stroke="var(--yx-gold,#bba988)" stroke-width="1.3"/><path d="M67.94 302.75a9.1 9.1 0 0 1 8.84 -5.8500000000000005" stroke="var(--yx-cream,#f5e7ce)" stroke-width="1.2" stroke-linecap="round" opacity=".65"/><circle cx="925" cy="309" r="15" fill="var(--yx-ink,#100b0e)" opacity=".7"/><circle cx="924" cy="306" r="13" fill="url(#stage-pearl)" stroke="var(--yx-gold,#bba988)" stroke-width="1.3"/><path d="M915.94 302.75a9.1 9.1 0 0 1 8.84 -5.8500000000000005" stroke="var(--yx-cream,#f5e7ce)" stroke-width="1.2" stroke-linecap="round" opacity=".65"/><circle cx="77" cy="558" r="15" fill="var(--yx-ink,#100b0e)" opacity=".7"/><circle cx="76" cy="555" r="13" fill="url(#stage-pearl)" stroke="var(--yx-gold,#bba988)" stroke-width="1.3"/><path d="M67.94 551.75a9.1 9.1 0 0 1 8.84 -5.8500000000000005" stroke="var(--yx-cream,#f5e7ce)" stroke-width="1.2" stroke-linecap="round" opacity=".65"/><circle cx="925" cy="558" r="15" fill="var(--yx-ink,#100b0e)" opacity=".7"/><circle cx="924" cy="555" r="13" fill="url(#stage-pearl)" stroke="var(--yx-gold,#bba988)" stroke-width="1.3"/><path d="M915.94 551.75a9.1 9.1 0 0 1 8.84 -5.8500000000000005" stroke="var(--yx-cream,#f5e7ce)" stroke-width="1.2" stroke-linecap="round" opacity=".65"/>
<path d="M75 182h70m710 0h70M82 659h23m790 0h23" stroke="var(--yx-cream,#f5e7ce)" stroke-width="1" opacity=".2"/>
</svg>